<svg id="Capa_1" enable-background="new 0 0 512 512" height="512" viewBox="0 0 512 512" width="512" xmlns="http://www.w3.org/2000/svg"><path d="m256 90c-68.925 0-125 56.075-125 125 0 32.759 12.673 62.609 33.366 84.921 6.764-24.687 23.259-45.39 45.089-57.711-14.378-12.825-23.455-31.471-23.455-52.21 0-38.599 31.401-70 70-70s70 31.401 70 70c0 20.739-9.076 39.386-23.455 52.21 21.83 12.322 38.325 33.024 45.089 57.711 20.693-22.312 33.366-52.162 33.366-84.921 0-68.925-56.075-125-125-125z"/><circle cx="256" cy="190" r="40"/><path d="m256.001 260c-34.763 0-63.237 27.431-64.919 61.783 18.933 11.554 41.162 18.217 64.918 18.217s45.985-6.663 64.918-18.217c-1.682-34.352-30.155-61.783-64.917-61.783z"/><path d="m408.028 62.972c-40.608-40.608-94.599-62.972-152.028-62.972s-111.42 22.364-152.028 62.972-62.972 94.599-62.972 152.028c0 42.563 11.122 84.707 33.057 125.261 17.314 32.014 41.368 63.079 71.493 92.334 50.94 49.468 101.284 76.52 103.402 77.646 2.203 1.173 4.626 1.759 7.048 1.759s4.845-.586 7.048-1.759c2.118-1.127 52.462-28.179 103.402-77.646 30.125-29.255 54.179-60.32 71.493-92.334 21.935-40.554 33.057-82.698 33.057-125.261 0-57.429-22.364-111.42-62.972-152.028zm-152.028 307.028c-85.468 0-155-69.532-155-155s69.532-155 155-155 155 69.532 155 155-69.532 155-155 155z"/></svg>