<?xml version="1.0" encoding="UTF-8"?>
<svg width="93px" height="24px" viewBox="0 0 93 24" version="1.1" xmlns="http://www.w3.org/2000/svg" xmlns:xlink="http://www.w3.org/1999/xlink">
    <!-- Generator: Sketch 56.3 (81716) - https://sketch.com -->
    <title>Combined Shape</title>
    <desc>Created with Sketch.</desc>
    <g id="Website" stroke="none" stroke-width="1" fill="none" fill-rule="evenodd">
        <g id="Landing" transform="translate(-674.000000, -15.000000)" fill="#f5ebe9">
            <g id="Group-2">
                <path d="M686,28.68 C681.810712,28.68 678.308096,31.6772355 677.523978,35.64 L686,35.64 C690.669447,35.64 694.485794,31.9163288 694.635443,27.28242 C695.797345,26.3342844 696.801109,25.1993327 697.600469,23.9238288 C697.861089,24.9058409 698,25.9368839 698,26.9997579 C698,33.6166663 692.616666,39 686,39 L674,39 L674,37.32 C674.000131,30.7032024 679.383414,25.32 686,25.32 C690.189288,25.32 693.691904,22.3227645 694.476022,18.36 L686,18.36 C681.330553,18.36 677.514206,22.0836712 677.364557,26.71758 C676.202655,27.6657156 675.198891,28.8006673 674.399531,30.0761712 C674.138911,29.0941591 674,28.0631161 674,27.0002421 C674,20.3833337 679.383334,15 686,15 L698,15 L698,16.68 C697.999869,23.2967976 692.616586,28.68 686,28.68 Z M759.058824,34.7647059 C754.965419,34.7647059 751.647059,31.4463458 751.647059,27.3529412 C751.647059,23.2595366 754.965419,19.9411765 759.058824,19.9411765 C763.152228,19.9411765 766.470588,23.2595366 766.470588,27.3529412 C766.470588,31.4463458 763.152228,34.7647059 759.058824,34.7647059 Z M759.058824,31.5882353 C761.397912,31.5882353 763.294118,29.6920295 763.294118,27.3529412 C763.294118,25.0138528 761.397912,23.1176471 759.058824,23.1176471 C756.719735,23.1176471 754.823529,25.0138528 754.823529,27.3529412 C754.823529,29.6920295 756.719735,31.5882353 759.058824,31.5882353 Z M734.817827,28.7647059 L726.829232,28.7647059 C727.410648,30.4096833 728.979456,31.5882353 730.823529,31.5882353 C731.983142,31.5882353 733.033907,31.1222006 733.798747,30.3672079 L736.555609,32.0519571 C735.196315,33.7081435 733.133309,34.7647059 730.823529,34.7647059 C726.730125,34.7647059 723.411765,31.4463458 723.411765,27.3529412 C723.411765,23.2595366 726.730125,19.9411765 730.823529,19.9411765 C734.916934,19.9411765 738.235294,23.2595366 738.235294,27.3529412 C738.235294,27.8357 738.18914,28.3076789 738.101002,28.7647059 L734.817827,28.7647059 Z M734.674794,25.5882353 C734.005612,24.1302142 732.53282,23.1176471 730.823529,23.1176471 C729.114239,23.1176471 727.641447,24.1302142 726.972265,25.5882353 L734.674794,25.5882353 Z M719.882353,20.2941176 L711.749567,31.2352941 L719.882353,31.2352941 L719.882353,34.4117647 L705.058824,34.4117647 L713.264706,23.4705882 L705.058824,23.4705882 L705.058824,20.2941176 L719.882353,20.2941176 Z M744.941176,21.269671 C746.141706,20.4322745 747.601737,19.9411765 749.176471,19.9411765 C749.294786,19.9411765 749.412453,19.9439487 749.529412,19.9494318 L749.529412,23.1321437 C749.413035,23.1225428 749.295325,23.1176471 749.176471,23.1176471 C746.837382,23.1176471 744.941176,25.0138528 744.941176,27.3529412 C744.941176,27.4717953 744.946072,27.5895059 744.955673,27.7058824 L744.941176,27.7058824 L744.941176,34.4117647 L741.764706,34.4117647 L741.764706,20.2941176 L744.941176,20.2941176 L744.941176,21.269671 Z" id="Combined-Shape"></path>
            </g>
        </g>
    </g>
</svg>